<svg id="Layer_1" enable-background="new 0 0 512 512" height="512" viewBox="0 0 512 512" width="512" xmlns="http://www.w3.org/2000/svg"><g><path d="m282.931 468c-23.131 0-41.5-15.897-44.804-38.897l-48.772-341.226c-.179-1.248-.557-3.875-4.485-3.877-.002 0-.005 0-.007 0-3.923 0-4.303 2.624-4.486 3.885l-34.736 243.531c-3.158 21.743-20.653 37.57-42.551 38.539-21.901.967-40.722-13.252-45.776-34.581-.019-.077-.036-.153-.053-.23l-11.214-49.947c-3.047-12.662-14.228-22.197-26.047-22.197-11.046 0-20-8.954-20-20s8.954-20 20-20c30.372 0 57.705 22.321 64.993 53.074.019.077.036.153.053.23l11.216 49.955c.282 1.172 1.064 3.904 5.06 3.734 4.133-.183 4.564-3.157 4.727-4.277l34.736-243.531c3.27-22.508 21.391-38.185 44.078-38.185h.039c22.707.018 40.82 15.728 44.049 38.204l48.771 341.225c.181 1.259.708 4.666 5.369 4.57 4.702-.071 5.086-3.465 5.231-4.743l6.803-60.491c1.234-10.977 11.134-18.877 22.11-17.639 10.977 1.234 18.874 11.133 17.639 22.11l-6.805 60.504c-2.642 23.354-20.89 39.902-44.377 40.255-.254.003-.508.005-.761.005z" fill="#0023c4"/><path d="m410.524 353c-.586 0-1.173-.012-1.764-.035-20.595-.809-37.346-15.573-40.734-35.904l-15.696-95.746c-.021-.125-.044-.229-.067-.312-.238-.041-.553-.033-.79.021-.02.095-.04.217-.058.369l-8.469 74.855c-1.242 10.976-11.143 18.867-22.122 17.625-10.976-1.242-18.866-11.146-17.625-22.122l8.469-74.855c2.33-20.595 18.428-35.359 39.147-35.903 20.728-.555 37.569 13.355 40.978 33.799l15.696 95.746c.152.909.394 2.362 2.839 2.458 2.346.085 2.77-1.226 3.008-2.167l7.063-29.974c.019-.079.038-.159.058-.238 8.301-33.386 38.389-57.617 71.543-57.617 11.046 0 20 8.954 20 20s-8.954 20-20 20c-14.757 0-28.795 11.67-32.697 27.163l-7.062 29.967c-.019.079-.038.158-.058.237-4.829 19.429-21.815 32.633-41.659 32.633z" fill="#ff5cf4"/></g></svg>