<?xml version="1.0" encoding="iso-8859-1"?>
<!-- Generator: Adobe Illustrator 19.0.0, SVG Export Plug-In . SVG Version: 6.00 Build 0)  -->
<svg version="1.1" id="Capa_1" xmlns="http://www.w3.org/2000/svg" xmlns:xlink="http://www.w3.org/1999/xlink" x="0px" y="0px"
	 viewBox="0 0 409.6 409.6" style="enable-background:new 0 0 409.6 409.6;" xml:space="preserve">
<g>
	<circle style="fill:#EA3457;" cx="204.8" cy="204.8" r="197.973"/>
	<path style="fill:#EA3457;" d="M204.8,409.6C91.873,409.6,0,317.727,0,204.8S91.873,0,204.8,0s204.8,91.873,204.8,204.8
		S317.727,409.6,204.8,409.6z M204.8,13.653C99.4,13.653,13.653,99.4,13.653,204.8S99.4,395.947,204.8,395.947
		S395.947,310.2,395.947,204.8S310.2,13.653,204.8,13.653z"/>
</g>
<path style="fill:#FFFFFF;" d="M204.8,34.133c-94.256,0-170.667,76.411-170.667,170.667S110.544,375.467,204.8,375.467
	S375.467,299.056,375.467,204.8c0-74.375-47.575-137.638-113.952-161.017"/>
<path style="fill:#602F75;" d="M204.8,382.293c-97.871,0-177.493-79.623-177.493-177.493S106.929,27.307,204.8,27.307
	c3.77,0,6.827,3.057,6.827,6.827c0,3.77-3.057,6.827-6.827,6.827c-90.341,0-163.84,73.499-163.84,163.84
	s73.499,163.84,163.84,163.84s163.84-73.499,163.84-163.84c0-69.41-43.964-131.529-109.394-154.576
	c-3.557-1.253-5.424-5.154-4.173-8.707c1.256-3.56,5.156-5.427,8.707-4.173C334.667,62.31,382.293,129.606,382.293,204.8
	C382.293,302.671,302.671,382.293,204.8,382.293z"/>
<path style="fill:#FFE600;" d="M282.732,201.824l-128.585-61.152c-4.917-2.482-10.784,0.995-10.784,6.39v122.305
	c0,5.395,5.868,8.873,10.784,6.39l128.585-61.152C288.049,211.919,288.049,204.508,282.732,201.824z"/>
<path style="fill:#602F75;" d="M150.777,283.416c-2.603,0-5.224-0.717-7.557-2.154c-4.186-2.58-6.687-7.026-6.687-11.897V147.058
	c0-4.871,2.5-9.317,6.687-11.897c4.277-2.627,9.513-2.854,13.996-0.591l128.447,61.087c0.046,0.02,0.094,0.043,0.14,0.067
	c4.777,2.41,7.743,7.194,7.743,12.486s-2.966,10.076-7.743,12.486l-128.727,61.223C155.1,282.919,152.943,283.416,150.777,283.416z
	 M150.714,146.69c-0.123,0-0.23,0.036-0.336,0.104l-0.191,122.573c0.413,0.406,0.643,0.423,0.884,0.294l128.727-61.22l2.934-6.617
	l-2.934,6.163l-128.587-61.153C151.013,146.737,150.854,146.69,150.714,146.69z"/>
<g>
</g>
<g>
</g>
<g>
</g>
<g>
</g>
<g>
</g>
<g>
</g>
<g>
</g>
<g>
</g>
<g>
</g>
<g>
</g>
<g>
</g>
<g>
</g>
<g>
</g>
<g>
</g>
<g>
</g>
</svg>
